<svg xmlns="http://www.w3.org/2000/svg" xmlns:xlink="http://www.w3.org/1999/xlink" width="500" zoomAndPan="magnify" viewBox="0 0 375 374.999991" height="500" preserveAspectRatio="xMidYMid meet" version="1.0"><defs><g/><clipPath id="3e2836d9de"><path d="M 172 122 L 246 122 L 246 239 L 172 239 Z M 172 122 " clip-rule="nonzero"/></clipPath><clipPath id="b78b2cdffa"><path d="M 146.085938 174.21875 L 221.417969 98.882812 L 290.960938 168.421875 L 215.625 243.757812 Z M 146.085938 174.21875 " clip-rule="nonzero"/></clipPath><clipPath id="56e8e057ee"><path d="M 146.085938 174.21875 L 221.417969 98.882812 L 290.960938 168.421875 L 215.625 243.757812 Z M 146.085938 174.21875 " clip-rule="nonzero"/></clipPath></defs><g clip-path="url(#3e2836d9de)"><g clip-path="url(#b78b2cdffa)"><g clip-path="url(#56e8e057ee)"><path fill="#ff3e00" d="M 243.601562 122.066406 L 238.144531 122.085938 C 236.777344 122.085938 235.460938 122.632812 234.492188 123.605469 L 231.335938 126.761719 C 231.015625 127.085938 230.574219 127.265625 230.121094 127.269531 L 228.105469 127.273438 C 227.15625 127.277344 226.386719 126.511719 226.390625 125.558594 L 226.394531 123.839844 C 226.398438 122.890625 225.628906 122.121094 224.679688 122.125 L 207.539062 122.179688 C 207.425781 122.179688 207.3125 122.191406 207.203125 122.214844 C 201.222656 123.417969 195.6875 126.257812 191.207031 130.417969 L 173.550781 146.820312 C 172.851562 147.46875 172.808594 148.554688 173.453125 149.25 C 173.929688 149.765625 174.671875 149.9375 175.328125 149.679688 L 198.578125 140.722656 C 200.886719 139.949219 203.289062 139.507812 205.71875 139.402344 L 205.691406 147.984375 C 205.691406 148.933594 206.457031 149.699219 207.40625 149.699219 L 207.15625 230.550781 C 207.222656 235.296875 211.128906 239.070312 215.878906 238.972656 C 220.511719 238.878906 224.257812 235.128906 224.355469 230.496094 L 224.597656 149.648438 C 225.546875 149.644531 226.320312 148.875 226.324219 147.921875 L 226.339844 142.761719 C 226.363281 141.820312 227.125 141.0625 228.0625 141.039062 L 230.078125 141.03125 C 230.535156 141.027344 230.972656 141.207031 231.292969 141.53125 L 234.429688 144.667969 C 235.390625 145.636719 236.703125 146.175781 238.074219 146.167969 L 243.527344 146.152344 C 244.480469 146.148438 245.253906 145.378906 245.253906 144.425781 L 245.316406 123.785156 C 245.320312 122.835938 244.554688 122.066406 243.601562 122.066406 Z M 220.914062 230.507812 C 220.90625 233.355469 218.589844 235.675781 215.738281 235.683594 C 212.890625 235.691406 210.585938 233.386719 210.59375 230.539062 L 210.835938 149.6875 L 221.160156 149.660156 Z M 241.820312 142.71875 L 238.085938 142.726562 C 237.628906 142.726562 237.191406 142.546875 236.871094 142.226562 L 233.734375 139.089844 C 232.773438 138.121094 231.460938 137.582031 230.089844 137.589844 L 228.074219 137.59375 C 225.226562 137.605469 222.910156 139.921875 222.898438 142.769531 L 222.886719 146.210938 L 209.125 146.253906 L 209.152344 137.652344 C 209.15625 136.699219 208.386719 135.933594 207.4375 135.9375 L 206.75 135.9375 C 203.582031 135.953125 200.4375 136.480469 197.429688 137.496094 L 182.402344 143.277344 L 193.542969 132.929688 C 197.507812 129.242188 202.410156 126.714844 207.703125 125.617188 L 222.949219 125.574219 C 222.941406 128.421875 225.246094 130.722656 228.09375 130.71875 L 230.109375 130.710938 C 231.480469 130.710938 232.792969 130.164062 233.761719 129.1875 L 236.917969 126.035156 C 237.242188 125.710938 237.679688 125.53125 238.132812 125.527344 L 241.871094 125.515625 Z M 241.820312 142.71875 " fill-opacity="1" fill-rule="nonzero"/></g></g></g><g fill="#ff3e00" fill-opacity="1"><g transform="translate(4.495958, 234.401005)"><g><path d="M 35.890625 1.421875 C 28.835938 1.421875 22.71875 -0.296875 17.53125 -3.734375 C 12.34375 -7.179688 8.796875 -11.640625 6.890625 -17.109375 L 16.640625 -20.671875 C 18.378906 -16.867188 20.953125 -13.859375 24.359375 -11.640625 C 27.765625 -9.421875 31.6875 -8.3125 36.125 -8.3125 C 41.195312 -8.3125 45.195312 -9.519531 48.125 -11.9375 C 51.050781 -14.351562 52.515625 -17.820312 52.515625 -22.34375 C 52.515625 -26.695312 50.867188 -30.179688 47.578125 -32.796875 C 44.296875 -35.410156 39.6875 -37.785156 33.75 -39.921875 C 30.894531 -40.953125 28.535156 -41.863281 26.671875 -42.65625 C 24.816406 -43.445312 22.679688 -44.578125 20.265625 -46.046875 C 17.847656 -47.515625 15.925781 -49.019531 14.5 -50.5625 C 13.070312 -52.101562 11.863281 -54.039062 10.875 -56.375 C 9.882812 -58.71875 9.390625 -61.273438 9.390625 -64.046875 C 9.390625 -69.828125 11.6875 -74.695312 16.28125 -78.65625 C 20.875 -82.625 27.09375 -84.609375 34.9375 -84.609375 C 41.351562 -84.609375 46.695312 -83.238281 50.96875 -80.5 C 55.25 -77.769531 58.023438 -74.1875 59.296875 -69.75 L 49.78125 -66.546875 C 48.675781 -69.003906 46.773438 -71.023438 44.078125 -72.609375 C 41.390625 -74.191406 38.101562 -74.984375 34.21875 -74.984375 C 29.863281 -74.984375 26.414062 -74.007812 23.875 -72.0625 C 21.34375 -70.125 20.078125 -67.453125 20.078125 -64.046875 C 20.078125 -62.222656 20.53125 -60.554688 21.4375 -59.046875 C 22.351562 -57.546875 23.78125 -56.203125 25.71875 -55.015625 C 27.664062 -53.828125 29.46875 -52.875 31.125 -52.15625 C 32.789062 -51.445312 35.09375 -50.539062 38.03125 -49.4375 C 41.664062 -48.082031 44.671875 -46.789062 47.046875 -45.5625 C 49.429688 -44.34375 52.007812 -42.703125 54.78125 -40.640625 C 57.550781 -38.578125 59.648438 -36.019531 61.078125 -32.96875 C 62.503906 -29.925781 63.21875 -26.460938 63.21875 -22.578125 C 63.21875 -15.128906 60.679688 -9.265625 55.609375 -4.984375 C 50.535156 -0.710938 43.960938 1.421875 35.890625 1.421875 Z M 35.890625 1.421875 "/></g></g></g><g fill="#ff3e00" fill-opacity="1"><g transform="translate(65.813281, 234.401005)"><g><path d="M 26.140625 0 L 3.921875 -60.71875 L 14.375 -60.71875 L 28.75 -20.203125 C 29.78125 -17.191406 30.414062 -15.210938 30.65625 -14.265625 C 30.894531 -15.210938 31.53125 -17.191406 32.5625 -20.203125 L 46.703125 -60.71875 L 57.03125 -60.71875 L 34.8125 0 Z M 26.140625 0 "/></g></g></g><g fill="#ff3e00" fill-opacity="1"><g transform="translate(116.792102, 234.401005)"><g><path d="M 33.265625 1.421875 C 25.023438 1.421875 18.46875 -1.523438 13.59375 -7.421875 C 8.726562 -13.328125 6.296875 -20.992188 6.296875 -30.421875 C 6.296875 -40.328125 8.75 -48.085938 13.65625 -53.703125 C 18.570312 -59.328125 25.109375 -62.140625 33.265625 -62.140625 C 40.554688 -62.140625 46.554688 -59.703125 51.265625 -54.828125 C 55.984375 -49.960938 58.34375 -42.773438 58.34375 -33.265625 C 58.34375 -31.046875 58.222656 -28.75 57.984375 -26.375 L 16.875 -26.375 C 17.269531 -20.832031 18.992188 -16.378906 22.046875 -13.015625 C 25.097656 -9.648438 28.921875 -7.96875 33.515625 -7.96875 C 38.578125 -7.96875 42.929688 -9.785156 46.578125 -13.421875 L 52.875 -6.421875 C 47.644531 -1.191406 41.109375 1.421875 33.265625 1.421875 Z M 16.75 -35.171875 L 47.890625 -35.171875 C 47.804688 -41.429688 46.316406 -45.96875 43.421875 -48.78125 C 40.535156 -51.59375 37.148438 -53 33.265625 -53 C 28.597656 -53 24.757812 -51.507812 21.75 -48.53125 C 18.738281 -45.5625 17.070312 -41.109375 16.75 -35.171875 Z M 16.75 -35.171875 "/></g></g></g><g fill="#ff3e00" fill-opacity="1"><g transform="translate(170.860583, 234.401005)"><g><path d="M 10.453125 0 L 10.453125 -80.921875 L 20.796875 -85.796875 L 20.796875 0 Z M 10.453125 0 "/></g></g></g><g fill="#ff3e00" fill-opacity="1"><g transform="translate(226.464393, 234.13475)"><g><path d="M 52.765625 -7.0625 C 47.929688 -1.40625 41.394531 1.421875 33.15625 1.421875 C 24.914062 1.421875 18.378906 -1.390625 13.546875 -7.015625 C 8.710938 -12.640625 6.296875 -20.398438 6.296875 -30.296875 C 6.296875 -40.203125 8.710938 -47.984375 13.546875 -53.640625 C 18.378906 -59.304688 24.914062 -62.140625 33.15625 -62.140625 C 41.394531 -62.140625 47.929688 -59.328125 52.765625 -53.703125 C 57.597656 -48.085938 60.015625 -40.328125 60.015625 -30.421875 C 60.015625 -20.515625 57.597656 -12.726562 52.765625 -7.0625 Z M 21.078125 -14.078125 C 23.972656 -10.160156 27.992188 -8.203125 33.140625 -8.203125 C 38.296875 -8.203125 42.316406 -10.160156 45.203125 -14.078125 C 48.097656 -18.003906 49.546875 -23.453125 49.546875 -30.421875 C 49.546875 -37.316406 48.097656 -42.742188 45.203125 -46.703125 C 42.316406 -50.660156 38.296875 -52.640625 33.140625 -52.640625 C 27.992188 -52.640625 23.972656 -50.675781 21.078125 -46.75 C 18.191406 -42.832031 16.75 -37.347656 16.75 -30.296875 C 16.75 -23.410156 18.191406 -18.003906 21.078125 -14.078125 Z M 21.078125 -14.078125 "/></g></g></g><g fill="#ff3e00" fill-opacity="1"><g transform="translate(282.909549, 234.13475)"><g><path d="M 52.765625 -7.0625 C 47.929688 -1.40625 41.394531 1.421875 33.15625 1.421875 C 24.914062 1.421875 18.378906 -1.390625 13.546875 -7.015625 C 8.710938 -12.640625 6.296875 -20.398438 6.296875 -30.296875 C 6.296875 -40.203125 8.710938 -47.984375 13.546875 -53.640625 C 18.378906 -59.304688 24.914062 -62.140625 33.15625 -62.140625 C 41.394531 -62.140625 47.929688 -59.328125 52.765625 -53.703125 C 57.597656 -48.085938 60.015625 -40.328125 60.015625 -30.421875 C 60.015625 -20.515625 57.597656 -12.726562 52.765625 -7.0625 Z M 21.078125 -14.078125 C 23.972656 -10.160156 27.992188 -8.203125 33.140625 -8.203125 C 38.296875 -8.203125 42.316406 -10.160156 45.203125 -14.078125 C 48.097656 -18.003906 49.546875 -23.453125 49.546875 -30.421875 C 49.546875 -37.316406 48.097656 -42.742188 45.203125 -46.703125 C 42.316406 -50.660156 38.296875 -52.640625 33.140625 -52.640625 C 27.992188 -52.640625 23.972656 -50.675781 21.078125 -46.75 C 18.191406 -42.832031 16.75 -37.347656 16.75 -30.296875 C 16.75 -23.410156 18.191406 -18.003906 21.078125 -14.078125 Z M 21.078125 -14.078125 "/></g></g></g><g fill="#ff3e00" fill-opacity="1"><g transform="translate(339.354705, 234.13475)"><g><path d="M 10.453125 0 L 10.453125 -80.921875 L 20.796875 -85.796875 L 20.796875 0 Z M 10.453125 0 "/></g></g></g></svg>