<svg xmlns="http://www.w3.org/2000/svg" xmlns:xlink="http://www.w3.org/1999/xlink" width="500" zoomAndPan="magnify" viewBox="0 0 375 374.999991" height="500" preserveAspectRatio="xMidYMid meet" version="1.0"><defs><g/><clipPath id="8d9f9b6c5f"><path d="M 6.75 6.484375 L 369.113281 6.484375 L 369.113281 368.847656 L 6.75 368.847656 Z M 6.75 6.484375 " clip-rule="nonzero"/></clipPath><clipPath id="e4f468a91b"><path d="M 191 101 L 306 101 L 306 287 L 191 287 Z M 191 101 " clip-rule="nonzero"/></clipPath><clipPath id="29c170c217"><path d="M 149.011719 183.222656 L 267.457031 64.777344 L 378.652344 175.96875 L 260.207031 294.414062 Z M 149.011719 183.222656 " clip-rule="nonzero"/></clipPath><clipPath id="f025557ba3"><path d="M 149.011719 183.222656 L 267.457031 64.777344 L 378.652344 175.96875 L 260.207031 294.414062 Z M 149.011719 183.222656 " clip-rule="nonzero"/></clipPath></defs><g clip-path="url(#8d9f9b6c5f)"><path fill="#d9d9d9" d="M 187.929688 6.484375 C 87.867188 6.484375 6.75 87.601562 6.75 187.667969 C 6.75 287.730469 87.867188 368.847656 187.929688 368.847656 C 287.996094 368.847656 369.113281 287.730469 369.113281 187.667969 C 369.113281 87.601562 287.996094 6.484375 187.929688 6.484375 " fill-opacity="1" fill-rule="nonzero"/></g><g fill="#ff3e00" fill-opacity="1"><g transform="translate(48.381107, 284.70563)"><g><path d="M 78.3125 3.109375 C 62.925781 3.109375 49.570312 -0.648438 38.25 -8.171875 C 26.925781 -15.691406 19.191406 -25.414062 15.046875 -37.34375 L 36.3125 -45.125 C 40.113281 -36.820312 45.726562 -30.25 53.15625 -25.40625 C 60.59375 -20.570312 69.148438 -18.15625 78.828125 -18.15625 C 89.898438 -18.15625 98.632812 -20.789062 105.03125 -26.0625 C 111.425781 -31.332031 114.625 -38.894531 114.625 -48.75 C 114.625 -58.257812 111.035156 -65.863281 103.859375 -71.5625 C 96.679688 -77.269531 86.613281 -82.460938 73.65625 -87.140625 C 67.425781 -89.378906 62.28125 -91.363281 58.21875 -93.09375 C 54.15625 -94.820312 49.488281 -97.285156 44.21875 -100.484375 C 38.945312 -103.679688 34.753906 -106.96875 31.640625 -110.34375 C 28.523438 -113.71875 25.882812 -117.953125 23.71875 -123.046875 C 21.5625 -128.148438 20.484375 -133.726562 20.484375 -139.78125 C 20.484375 -152.394531 25.492188 -163.023438 35.515625 -171.671875 C 45.546875 -180.316406 59.125 -184.640625 76.25 -184.640625 C 90.25 -184.640625 101.914062 -181.65625 111.25 -175.6875 C 120.582031 -169.726562 126.632812 -161.90625 129.40625 -152.21875 L 108.65625 -145.21875 C 106.238281 -150.582031 102.085938 -154.992188 96.203125 -158.453125 C 90.328125 -161.910156 83.15625 -163.640625 74.6875 -163.640625 C 65.175781 -163.640625 57.65625 -161.519531 52.125 -157.28125 C 46.59375 -153.039062 43.828125 -147.207031 43.828125 -139.78125 C 43.828125 -135.800781 44.820312 -132.164062 46.8125 -128.875 C 48.800781 -125.59375 51.910156 -122.65625 56.140625 -120.0625 C 60.378906 -117.46875 64.3125 -115.394531 67.9375 -113.84375 C 71.570312 -112.289062 76.585938 -110.300781 82.984375 -107.875 C 90.941406 -104.9375 97.507812 -102.128906 102.6875 -99.453125 C 107.875 -96.773438 113.492188 -93.1875 119.546875 -88.6875 C 125.597656 -84.195312 130.179688 -78.625 133.296875 -71.96875 C 136.410156 -65.3125 137.96875 -57.742188 137.96875 -49.265625 C 137.96875 -33.015625 132.429688 -20.222656 121.359375 -10.890625 C 110.296875 -1.554688 95.945312 3.109375 78.3125 3.109375 Z M 78.3125 3.109375 "/></g></g></g><g clip-path="url(#e4f468a91b)"><g clip-path="url(#29c170c217)"><g clip-path="url(#f025557ba3)"><path fill="#ff3e00" d="M 302.949219 101.828125 L 294.296875 101.78125 C 292.125 101.765625 290.042969 102.613281 288.523438 104.148438 L 283.5625 109.105469 C 283.054688 109.617188 282.359375 109.898438 281.640625 109.898438 L 278.441406 109.878906 C 276.9375 109.871094 275.707031 108.644531 275.699219 107.136719 L 275.683594 104.410156 C 275.675781 102.902344 274.449219 101.675781 272.941406 101.667969 L 245.761719 101.527344 C 245.582031 101.527344 245.40625 101.546875 245.230469 101.582031 C 235.765625 103.410156 227.023438 107.835938 219.980469 114.371094 L 192.195312 140.148438 C 191.097656 141.167969 191.042969 142.890625 192.074219 144 C 192.832031 144.824219 194.015625 145.101562 195.054688 144.707031 L 231.800781 130.8125 C 235.449219 129.617188 239.257812 128.945312 243.105469 128.816406 L 243.179688 142.421875 C 243.1875 143.925781 244.414062 145.152344 245.921875 145.164062 L 246.59375 273.363281 C 246.765625 280.894531 253.011719 286.925781 260.539062 286.835938 C 267.882812 286.75 273.777344 280.855469 273.867188 273.507812 L 273.179688 145.308594 C 274.683594 145.316406 275.898438 144.105469 275.890625 142.597656 L 275.847656 134.414062 C 275.875 132.921875 277.070312 131.726562 278.5625 131.703125 L 281.753906 131.71875 C 282.480469 131.71875 283.175781 132.011719 283.6875 132.527344 L 288.703125 137.542969 C 290.242188 139.089844 292.332031 139.964844 294.5 139.96875 L 303.152344 140.019531 C 304.660156 140.027344 305.875 138.8125 305.867188 137.304688 L 305.867188 137.300781 L 305.691406 104.570312 C 305.683594 103.066406 304.457031 101.839844 302.949219 101.828125 Z M 268.414062 273.476562 C 268.4375 277.996094 264.792969 281.640625 260.273438 281.617188 C 255.757812 281.59375 252.070312 277.910156 252.046875 273.390625 L 251.359375 145.191406 L 267.726562 145.28125 Z M 300.394531 134.546875 L 294.476562 134.515625 C 293.75 134.507812 293.058594 134.214844 292.539062 133.703125 L 287.527344 128.6875 C 285.988281 127.140625 283.898438 126.269531 281.726562 126.261719 L 278.53125 126.242188 C 274.011719 126.21875 270.371094 129.863281 270.394531 134.378906 L 270.421875 139.839844 L 248.601562 139.71875 L 248.527344 126.082031 C 248.519531 124.574219 247.292969 123.347656 245.785156 123.339844 L 244.695312 123.332031 C 239.671875 123.316406 234.691406 124.105469 229.9375 125.679688 L 206.1875 134.648438 L 223.714844 118.390625 C 229.953125 112.59375 237.6875 108.648438 246.066406 106.980469 L 270.242188 107.109375 C 270.273438 111.628906 273.953125 115.308594 278.46875 115.339844 L 281.667969 115.355469 C 283.839844 115.371094 285.917969 114.519531 287.4375 112.988281 L 292.398438 108.027344 C 292.910156 107.523438 293.601562 107.238281 294.324219 107.242188 L 300.25 107.273438 Z M 300.394531 134.546875 " fill-opacity="1" fill-rule="nonzero"/></g></g></g></svg>