<svg xmlns="http://www.w3.org/2000/svg" xmlns:xlink="http://www.w3.org/1999/xlink" width="500" zoomAndPan="magnify" viewBox="0 0 375 374.999991" height="500" preserveAspectRatio="xMidYMid meet" version="1.0"><defs><clipPath id="43d2991199"><path d="M 69 47 L 257 47 L 257 350 L 69 350 Z M 69 47 " clip-rule="nonzero"/></clipPath><clipPath id="acd5c8b2c8"><path d="M 0 181.621094 L 194.632812 -13.007812 L 374.945312 167.304688 L 180.3125 361.933594 Z M 0 181.621094 " clip-rule="nonzero"/></clipPath><clipPath id="6ba2100d0f"><path d="M 0 181.621094 L 194.632812 -13.007812 L 374.945312 167.304688 L 180.3125 361.933594 Z M 0 181.621094 " clip-rule="nonzero"/></clipPath></defs><g clip-path="url(#43d2991199)"><g clip-path="url(#acd5c8b2c8)"><g clip-path="url(#6ba2100d0f)"><path fill="#ff3e00" d="M 252.171875 47.089844 L 238.042969 47.109375 C 234.496094 47.101562 231.09375 48.515625 228.59375 51.03125 L 220.441406 59.183594 C 219.605469 60.015625 218.472656 60.488281 217.296875 60.492188 L 212.078125 60.496094 C 209.621094 60.5 207.625 58.511719 207.628906 56.050781 L 207.632812 51.597656 C 207.636719 49.136719 205.648438 47.148438 203.1875 47.148438 L 158.816406 47.21875 C 158.527344 47.21875 158.234375 47.25 157.949219 47.308594 C 142.480469 50.394531 128.164062 57.71875 116.589844 68.460938 L 70.960938 110.839844 C 69.15625 112.515625 69.046875 115.332031 70.714844 117.132812 C 71.949219 118.464844 73.878906 118.910156 75.578125 118.253906 L 135.710938 95.171875 C 141.683594 93.183594 147.902344 92.046875 154.1875 91.792969 L 154.160156 114 C 154.160156 116.457031 156.148438 118.445312 158.605469 118.445312 L 158.320312 327.714844 C 158.519531 340.007812 168.648438 349.785156 180.941406 349.558594 C 192.929688 349.335938 202.613281 339.652344 202.839844 327.660156 L 203.101562 118.390625 C 205.558594 118.390625 207.554688 116.394531 207.558594 113.933594 L 207.578125 100.574219 C 207.636719 98.140625 209.601562 96.179688 212.035156 96.121094 L 217.25 96.113281 C 218.429688 96.109375 219.566406 96.578125 220.394531 97.414062 L 228.527344 105.542969 C 231.023438 108.054688 234.425781 109.457031 237.96875 109.441406 L 252.085938 109.429688 C 254.546875 109.425781 256.542969 107.433594 256.546875 104.972656 L 256.550781 104.96875 L 256.617188 51.539062 C 256.621094 49.082031 254.628906 47.089844 252.171875 47.089844 Z M 193.9375 327.667969 C 193.929688 335.046875 187.941406 341.03125 180.5625 341.042969 C 173.1875 341.050781 167.210938 335.078125 167.222656 327.703125 L 167.480469 118.4375 L 194.199219 118.402344 Z M 247.648438 100.53125 L 237.980469 100.539062 C 236.800781 100.535156 235.671875 100.066406 234.835938 99.238281 L 226.703125 91.105469 C 224.207031 88.59375 220.808594 87.191406 217.261719 87.207031 L 212.046875 87.210938 C 204.671875 87.21875 198.683594 93.207031 198.675781 100.582031 L 198.660156 109.488281 L 163.039062 109.53125 L 163.070312 87.269531 C 163.070312 84.808594 161.082031 82.820312 158.621094 82.820312 L 156.839844 82.824219 C 148.644531 82.847656 140.5 84.195312 132.730469 86.8125 L 93.859375 101.714844 L 122.644531 74.980469 C 132.894531 65.457031 145.5625 58.925781 159.261719 56.117188 L 198.722656 56.066406 C 198.722656 63.441406 204.6875 69.40625 212.0625 69.410156 L 217.285156 69.402344 C 220.828125 69.40625 224.226562 67.992188 226.730469 65.476562 L 234.882812 57.324219 C 235.71875 56.496094 236.851562 56.023438 238.03125 56.019531 L 247.703125 56.007812 Z M 247.648438 100.53125 " fill-opacity="1" fill-rule="nonzero"/></g></g></g></svg>